<svg width="136" height="134" viewBox="0 0 136 134" fill="none" xmlns="http://www.w3.org/2000/svg">
<circle cx="1.5" cy="1.5" r="1.5" fill="#FE6201"/>
<circle cx="14.7039" cy="1.5" r="1.5" fill="#FE6201"/>
<circle cx="27.9077" cy="1.5" r="1.5" fill="#FE6201"/>
<circle cx="41.1117" cy="1.5" r="1.5" fill="#FE6201"/>
<circle cx="54.3156" cy="1.5" r="1.5" fill="#FE6201"/>
<circle cx="67.5194" cy="1.5" r="1.5" fill="#FE6201"/>
<circle cx="80.7233" cy="1.5" r="1.5" fill="#FE6201"/>
<circle cx="93.9272" cy="1.5" r="1.5" fill="#FE6201"/>
<circle cx="107.131" cy="1.5" r="1.5" fill="#FE6201"/>
<circle cx="120.335" cy="1.5" r="1.5" fill="#FE6201"/>
<circle cx="133.539" cy="1.5" r="1.5" fill="#FE6201"/>
<circle cx="1.5" cy="16.0242" r="1.5" fill="#FE6201"/>
<circle cx="14.7039" cy="16.0242" r="1.5" fill="#FE6201"/>
<circle cx="27.9077" cy="16.0242" r="1.5" fill="#FE6201"/>
<circle cx="41.1117" cy="16.0242" r="1.5" fill="#FE6201"/>
<circle cx="54.3156" cy="16.0242" r="1.5" fill="#FE6201"/>
<circle cx="67.5194" cy="16.0242" r="1.5" fill="#FE6201"/>
<circle cx="80.7233" cy="16.0242" r="1.5" fill="#FE6201"/>
<circle cx="93.9272" cy="16.0242" r="1.5" fill="#FE6201"/>
<circle cx="107.131" cy="16.0242" r="1.5" fill="#FE6201"/>
<circle cx="120.335" cy="16.0242" r="1.5" fill="#FE6201"/>
<circle cx="133.539" cy="16.0242" r="1.5" fill="#FE6201"/>
<circle cx="1.5" cy="30.5486" r="1.5" fill="#FE6201"/>
<circle cx="14.7039" cy="30.5486" r="1.5" fill="#FE6201"/>
<circle cx="27.9077" cy="30.5486" r="1.5" fill="#FE6201"/>
<circle cx="41.1117" cy="30.5486" r="1.5" fill="#FE6201"/>
<circle cx="54.3156" cy="30.5486" r="1.5" fill="#FE6201"/>
<circle cx="67.5194" cy="30.5486" r="1.5" fill="#FE6201"/>
<circle cx="80.7233" cy="30.5486" r="1.5" fill="#FE6201"/>
<circle cx="93.9272" cy="30.5486" r="1.5" fill="#FE6201"/>
<circle cx="107.131" cy="30.5486" r="1.5" fill="#FE6201"/>
<circle cx="120.335" cy="30.5486" r="1.5" fill="#FE6201"/>
<circle cx="133.539" cy="30.5486" r="1.5" fill="#FE6201"/>
<circle cx="1.5" cy="45.0728" r="1.5" fill="#FE6201"/>
<circle cx="14.7039" cy="45.0728" r="1.5" fill="#FE6201"/>
<circle cx="27.9077" cy="45.0728" r="1.5" fill="#FE6201"/>
<circle cx="41.1117" cy="45.0728" r="1.5" fill="#FE6201"/>
<circle cx="54.3156" cy="45.0728" r="1.5" fill="#FE6201"/>
<circle cx="67.5194" cy="45.0728" r="1.5" fill="#FE6201"/>
<circle cx="80.7233" cy="45.0728" r="1.5" fill="#FE6201"/>
<circle cx="93.9272" cy="45.0728" r="1.5" fill="#FE6201"/>
<circle cx="107.131" cy="45.0728" r="1.5" fill="#FE6201"/>
<circle cx="120.335" cy="45.0728" r="1.5" fill="#FE6201"/>
<circle cx="133.539" cy="45.0728" r="1.5" fill="#FE6201"/>
<circle cx="1.5" cy="59.5972" r="1.5" fill="#FE6201"/>
<circle cx="14.7039" cy="59.5972" r="1.5" fill="#FE6201"/>
<circle cx="27.9077" cy="59.5972" r="1.5" fill="#FE6201"/>
<circle cx="41.1117" cy="59.5972" r="1.5" fill="#FE6201"/>
<circle cx="54.3156" cy="59.5972" r="1.5" fill="#FE6201"/>
<circle cx="67.5194" cy="59.5972" r="1.5" fill="#FE6201"/>
<circle cx="80.7233" cy="59.5972" r="1.5" fill="#FE6201"/>
<circle cx="93.9272" cy="59.5972" r="1.5" fill="#FE6201"/>
<circle cx="107.131" cy="59.5972" r="1.5" fill="#FE6201"/>
<circle cx="120.335" cy="59.5972" r="1.5" fill="#FE6201"/>
<circle cx="133.539" cy="59.5972" r="1.5" fill="#FE6201"/>
<circle cx="1.5" cy="74.1213" r="1.5" fill="#FE6201"/>
<circle cx="14.7039" cy="74.1213" r="1.5" fill="#FE6201"/>
<circle cx="27.9077" cy="74.1213" r="1.5" fill="#FE6201"/>
<circle cx="41.1117" cy="74.1213" r="1.5" fill="#FE6201"/>
<circle cx="54.3156" cy="74.1213" r="1.5" fill="#FE6201"/>
<circle cx="67.5194" cy="74.1213" r="1.5" fill="#FE6201"/>
<circle cx="80.7233" cy="74.1213" r="1.5" fill="#FE6201"/>
<circle cx="93.9272" cy="74.1213" r="1.5" fill="#FE6201"/>
<circle cx="107.131" cy="74.1213" r="1.5" fill="#FE6201"/>
<circle cx="120.335" cy="74.1213" r="1.5" fill="#FE6201"/>
<circle cx="133.539" cy="74.1213" r="1.5" fill="#FE6201"/>
<circle cx="1.5" cy="88.6455" r="1.5" fill="#FE6201"/>
<circle cx="14.7039" cy="88.6455" r="1.5" fill="#FE6201"/>
<circle cx="27.9077" cy="88.6455" r="1.5" fill="#FE6201"/>
<circle cx="41.1117" cy="88.6455" r="1.5" fill="#FE6201"/>
<circle cx="54.3156" cy="88.6455" r="1.5" fill="#FE6201"/>
<circle cx="67.5194" cy="88.6455" r="1.5" fill="#FE6201"/>
<circle cx="80.7233" cy="88.6455" r="1.5" fill="#FE6201"/>
<circle cx="93.9272" cy="88.6455" r="1.5" fill="#FE6201"/>
<circle cx="107.131" cy="88.6455" r="1.5" fill="#FE6201"/>
<circle cx="120.335" cy="88.6455" r="1.5" fill="#FE6201"/>
<circle cx="133.539" cy="88.6455" r="1.5" fill="#FE6201"/>
<circle cx="1.5" cy="103.17" r="1.5" fill="#FE6201"/>
<circle cx="14.7039" cy="103.17" r="1.5" fill="#FE6201"/>
<circle cx="27.9077" cy="103.17" r="1.5" fill="#FE6201"/>
<circle cx="41.1117" cy="103.17" r="1.5" fill="#FE6201"/>
<circle cx="54.3156" cy="103.17" r="1.5" fill="#FE6201"/>
<circle cx="67.5194" cy="103.17" r="1.5" fill="#FE6201"/>
<circle cx="80.7233" cy="103.17" r="1.5" fill="#FE6201"/>
<circle cx="93.9272" cy="103.17" r="1.5" fill="#FE6201"/>
<circle cx="107.131" cy="103.17" r="1.5" fill="#FE6201"/>
<circle cx="120.335" cy="103.17" r="1.5" fill="#FE6201"/>
<circle cx="133.539" cy="103.17" r="1.5" fill="#FE6201"/>
<circle cx="1.5" cy="117.694" r="1.5" fill="#FE6201"/>
<circle cx="14.7039" cy="117.694" r="1.5" fill="#FE6201"/>
<circle cx="27.9077" cy="117.694" r="1.5" fill="#FE6201"/>
<circle cx="41.1117" cy="117.694" r="1.5" fill="#FE6201"/>
<circle cx="54.3156" cy="117.694" r="1.5" fill="#FE6201"/>
<circle cx="67.5194" cy="117.694" r="1.5" fill="#FE6201"/>
<circle cx="80.7233" cy="117.694" r="1.5" fill="#FE6201"/>
<circle cx="93.9272" cy="117.694" r="1.5" fill="#FE6201"/>
<circle cx="107.131" cy="117.694" r="1.5" fill="#FE6201"/>
<circle cx="120.335" cy="117.694" r="1.5" fill="#FE6201"/>
<circle cx="133.539" cy="117.694" r="1.5" fill="#FE6201"/>
<circle cx="1.5" cy="132.219" r="1.5" fill="#FE6201"/>
<circle cx="14.7039" cy="132.219" r="1.5" fill="#FE6201"/>
<circle cx="27.9077" cy="132.219" r="1.5" fill="#FE6201"/>
<circle cx="41.1117" cy="132.219" r="1.5" fill="#FE6201"/>
<circle cx="54.3156" cy="132.219" r="1.5" fill="#FE6201"/>
<circle cx="67.5194" cy="132.219" r="1.5" fill="#FE6201"/>
<circle cx="80.7233" cy="132.219" r="1.5" fill="#FE6201"/>
<circle cx="93.9272" cy="132.219" r="1.5" fill="#FE6201"/>
<circle cx="107.131" cy="132.219" r="1.5" fill="#FE6201"/>
<circle cx="120.335" cy="132.219" r="1.5" fill="#FE6201"/>
<circle cx="133.539" cy="132.219" r="1.5" fill="#FE6201"/>
</svg>
